<svg xmlns="http://www.w3.org/2000/svg" width="100%" height="100%" xmlns:xlink="http://www.w3.org/1999/xlink" viewBox="0 0 219 288" preserveAspectRatio="xMidYMid meet" ><g style="fill:rgb(157,155,164);fill-rule:evenodd;stroke:rgb(157,155,164);stroke-width:0.1;" id="l1"><path d="M0,0h219v234h-1l-2-2c0-1-2-1-5-2l-6-3l-1-1c0-2-2-1-3-1l-2-1c0-2-2-1-3-1l-2-1v-1h-4l-3-1l-1-1v-1h-3l-3-1l-2-1v-1h-4l-1-2v-1l-1,1h-1l-2-1l-1-1v-1h-2v-1l1-1l-2,1h-1v-1l1-1l-2,1h-1v-1l1-1h-2l-1-1v-1l1-3l-1,1h-1v-1l1-1h-2v-5l-1,2h-1c0-2-1-2-2-3q0-2-1,8h-1q-1-4,0,2v11l-2,6l-1,2h-1v3l-1,3l-1,1h-2l-2-1v-2l1-2h2q1,3,0-2v-3c1-4-1-4-1-2h-2l-1-2c0-6-2-5-3-5v4l-1,3l-1,1h-1v-1c1-4,0-4-1-5l-1-2v-1h-2l-1-1v-1l-3,3h-2v2h-1c-1-1-1,0-2,1l-7,1h-6l-10-1l-1-1v-1l-2,1h-1l-1-1v-1l2-1h-1l-2-1c0-2-1-1-3-1c0-2-1-2-2-3c0-2-1-1-2-1v-4h-2l-1-2v-1l-2,1h-1v-4h-1c0-2-1-2-2-3c0-3-1-3-2-4l-1-2l-1-4v-5l2-2h1l-1-3v-6h1c1,1,1,0,2-1h2v2l-1,1h-2c0,3,2,3,3,4c0,2,3,1,4,1l-3-1v-1l2-1h-3v-1l1-1h2v-2h1v3h3v4l1-4h1l1,2v1h3l2,1v1c2,0,1-1,1-2h1l1,1v1l-1,1h-2l-5-1v-1l-1,1h-3c-2-1-2,0-3,2l-2,2h-1c0-2-1-2-2-3v1l-1,1c-3,0-3,4-2,4l2,2c0,5,1,5,5,6v2l-1,3h2v-3h2l2,1v3h1c0,2,1,2,2,3v1h-4l-1-1v2h2l1,2v1h3l1,1v2l-1,1h2l2,1v2h3l3,3v1l1-1h3c14,1,14,0,16-1c2,0,2-1,3-2h1l-1-2v-1c3,0,2-1,2-3h1q0,1,3-5l2-1h1v-3l1-2h2v-3l5-5h2l1,2v1l6-2h1v-3l1-2l3-3h1v-6l1-1h1v-8l1-1h1l3,3v-2l1-1h1v2c2,0,1-1,1-2c3,0,3-1,6-4h1v-3h1l1,1v-2h-2v-3l1-2l1-1h1v-4h1l1,2l-1-2v-1l1-1h1v-18l1-1l-1,1h-1l-1-1v-1c2,0,2-3,1-3v-2h-2c-1-1-1,0-3,2h-1v3l-1,3l-1,2h-1v-2l2-6h1l-1-2v-11c1-4,0-4-2-14v-4c1-1,0-1-1-5c0-9-1-9-2-11l-1-3v-1c1-3,0-3-1-4l-1-4v-3l2-1h1l-2-1l-1-1v-3c2,0,1-1,1-2l1-1h1v-2h-4l-1-1v-2l1-4l-1,2l-1,1h-2v-1l2-2h-6v-3l-1,2h-1v3h-1l-1-4v-7l-1,1h-2c0-4-2-4-2-1h-1c0-3-2-3-2-2l-1,2h-1v-7l-1,1h-1v2c-4,0-4,1-6,2h-1l-1-1l-1-2v-1l-1,2h-2l-1-1v-2l-1,3h-1c0-2-2-2-2-1l-1,1h-2c-3-1-3,1-4,2h-1c0-2-4-2-4-1h1l1,1v1h2v2l-1,1h-1c0-2-1-2-3-4c0-2-1-2-2-3v-6l-2,2h-2v4h-1l-1-2v-2l1-1c-2,0-2,1-3,2h-2l-1-2v3l-1,1h-2l-1-1v-1l-1,1l-3,1h-2v-1l1-1h-2v3l-1,1h-1v-3l1-1h-3q-1-2,0,4v3h-1l-1-3c0-4-3-3-5-3c-2-1-2,0-3,2c-3,0-3,1-4,2h-1v2h-1v-2c-2,0-2,3-3,6h-1c0-4-2-2-4-2v8l-1,2h-1l-3-3l-1-2l2,4v2l-1,1h-1c-3-1-2,3-2,4l-1,2l-1,1h-1l2,2l1,4v1l-1,2c-2,0-2,1-3,2c-2,0-1,1-1,3l-1,2h3v8l-1,3h-1v6l-1,6h-1v9h-1l1,15v3l-1,1h-1c-2-1-2,0-3,2h-1l1,2l1,3v4v-1l1-1h1v7h-1c0-2-2-2-1,5v1c-1,5,0,5,1,10c0,4,1,4,2,6l1,3c0,5,1,5,3,7v1h2v1h5l1,2c0,4,1,4,3,10c0,3,1,3,2,5v1l-2,2h-1v2l-1,1h-1v3l-5,10h-1v4l-2,1h-1v2l-2,1l-3,1h-1v-1l1-1h-2v2l-1,1l-4,2c-3,0-3,1-23,11c-2,0-2,1-3,2l-4,2h-1z"/><path d="M104,28h2v1l-1,1h-1zm32,0h1v3h-1zm9,2h1v2h-1zm-31,3h1v2h-1zm-18,18h1v2h3q0,1,1-2h2v3h4v2h-5c-3-1-3,0-4,1h-5c-2-1-2,0-4,2h-1c-1-1-1,0-2,1l-4,1h-1v-2c5,0,5-1,6-3c3,0,3-1,4-2h1l1,1v1h2v-2h1l1,1l-1-2zm-7,1h1v2h-1zm21,4h2l3,1v1h8l2,1v1h-4l-8-1l-1-1v-1h-2zm28,1h4l2,1v1h3l4,4l1,2c0,2,1,2,2,3c0,2,1,2,4,3l-1-1v-5h3l1,1v1c-1,1,0,1,2,3v2h2l1,2v1h-2l-2-1l1,1c0,3,2,1,3,1v4h-1l-1-1c0,3,1,3,2,5v6h-1c0-3-2-3-4-4v-1l1-2c2-1,0-1-1-4v-1c-3,0-2,1-1,4v2h-1l-2-1v2h-1l1,1c0,4,1,4,2,6c0,2,1,2,2,3v1c-3,0-3,4-1,4v-1l1-2h2v2h-2v2l-2,1h4v1l-1,2h-2v2h3v1l-1,1h2l1,3l1,4v12h-1l-1-1l-1-6c0-6-1-6-3-10l-1-3c0-3-1-3-2-4c0-3-1-3-2-5v-2c1-1,0-1-1-2l-1-4v-2l1-6h1l-1-2v-2c1-2,0-2-1-8c0-3-1-3-2-4c0-2-1-2-2-3v-1h-2c0-2-2-2-4-3v-1l-5,1h-8v-1c6,0,6-1,8-2z"/><path d="M127,59h2v1h-2zm33,4h1v1l1-1h1v2h-2l-1-1zm-90,21h1l1,2v3l-3,1h-1v-3h1l2,1l-1-2zm-4,11h1l1,1v6h-2zm98,5h1v2h-1zm-99,3h3v3l-1,1c-2,0-2,1-3,2h-1v-2l1-1h1l-1-1v-1zm4,1h2l2,1v1h-4zm6,2h3l3,1v1h5v1h-6l-2-1v-1h-3zm60,0h1l5,1v1l-1,2l-1,1l4-1h3l5,5v5h-1l-1-1v-1h-2l-1-1v-1h-3c0-3-3-3-3-2l-2,1h-2l-7-1v3h-5v-1h2c-2-1-2,0-5,1c-2,0-2,1-3,2l2-1h1v1l-1,1h-2l-1-1v-2l1-1h-2v2l-1,1h-1v-2l6-6h2v-2h6v1c-4,0-4,1-5,2h-1v3l2-1l10-2h2v-3h-6v-1l2-1z"/><path d="M91,110h1l2,1v3h3l1,1v1h-3l-3-3l-1-2zm-16,3h5v2l-3,1h-2l-1-1v-1zm-5,1h3v2h-4v-1zm62,2h3v1h-3zm-33,3h1v4h-1zm37,1h2v5h-1c-2-1-2,0-3,1h-1v-1l2-2h1zm8,0h1l1,1v1h-1l-1-1zm-71,1h2l1,3v1h7v-3h1l1,2v1l-1,1h-7v2c-5,0-4,2-4,8h1l2,1v2l-1,1h-2v-1q2-1-1,0h-4l-2-2v-1c-3,0-3,2-4,3h-1c0,4,1,4,2,5v1h-3l-1-1l-1-2c0-3-1-3-2-5v-8l1-1h1v-2l1-1h2l2,1v1h-3l2,1l1,2c0,3,2,3,4,5l1,2v-1h2l-2-4v-5h1l2,2v-1l1-1l4-1h-4v-2c2,0,1-1,1-3z"/><path d="M119,121h2v1h-2zm5,0h1v1l-2,2h-1v-1zm51,0h1l1,2v1h-1l-1-1zm-80,1h3l1,2v1h-1l-1-1v-1h-2zm32,1h1l2,2v1h-1l-2-2zm-40,1h1v2h-1zm31,0h2v1h-2zm23,0h1v1l1-1h1v1l-1,1h-1l-1-1zm-49,1h2l1,1c0,3,2,3,2,1l1-1h1l1,1v1l-1,5l-1,1h-1v2h-1v7h-1v-11h-4v-1c3,0,3-4,2-4l-1-1v1h-1v-1zm55,2h1v2h-1zm21,0h1v3h-1zm-50,1h1l2,2v1h-1l-2-2zm-30,1h1v2h-1zm77,4h3v1l-1,1h-1l-1-1zm-122,2h2l1,5v3h-3z"/><path d="M98,137h2v5l-1,1h-1v8h-2v-3l1-5h1zm-57,3h1v3h-1zm122,1h1v16l-1,1c-2,0-2,1-3,2h-1l-2-2v-1h6v-4l-1,1h-2l-1-3v-1h2v-6l1-1h1zm-118,4h1v2h-2v-1zm124,1h1v1l-1,2h-1v-2zm-46,1h1l2,2v1h-1l-2-2zm-76,3h1v7h-1l-2-4v-2h1l1,2zm75,0h1v3h-1zm-56,2h1v3h-1zm26,1h1v1c-1,1,0,1,2,3v2h-1c0-2-1-2-3-4v-1z"/><path d="M102,153h1l1,1c0,1,3,1,7,2v4l-1,1h-1l1,6v4h-1l-1-3v-7l2-2h-1c0-2-3-2-5-3l-2-2zm22,1h4v1h-4zm-81,2h1v2h-1zm24,0h2l3,3v1h2l1,1l1,2v1h-1l-2-1l-3-3v-1h-2l-1-2zm21,0h1v2h-1zm10,0h1v1l-1,1h-1v-1zm-16,2h1v2h-1zm18,0h2v1h-2zm30,0h1v2h-2v-1zm-39,1h2v2h-2zm9,1h2v1h-2zm30,2h1l2,2v1h-1l-2-2zm15,2h2v6h-2zm-9,1h1l1,1l2,4v3h-1l-2-2c0-2-1-2-3-4v-1h1l1,1v1l1-2h-1z"/><path d="M132,169h1l2,2v1h-3zm-12,4h3l2,1v2h-4v-1l1-1l-1,1h-2v-1zm6,1h2v1h-2zm4,3h1v2l-1,1h-2v-2h1l1,1zm-48,2h2v2l-1,1h-2l-1-1v-1zm16,9h1v3h-1zm-7,3h1v3h-2v-2zm38,27h2l1,1v1h2l1,1v1l-1,1c-4,0-4,4-5,9h-1v6l-2,1h-2l-2-2v1c-2,0-2,1-3,2h-3l-2-2v-1l1-1h1v-3h1h-3v-1l1-2h1v-3l1-1l2-1h1c2,1,2,0,4-2l2-1h3zm6,7h1v2h-1zm-4,4h2l1,1v1l-1,1h-2z"/><path d="M139,232h4v1l-1,1h-1v2h-1l1,1v1h-2zm-8,1h1v2l-1,1h-1v2h-1v-4zm-23,1h2v2h-5v-1zm-1,4h1l3,1v3l-2,2h-1v-3h-2v-2zm-9,25h22l1,1v3c-2,0-2,1-3,3l-1,1h-1l-11-1l3,1v1c-9,0-9,1-10,4l-1,1h-1l-1-1v-2h1l1,1v-3h-2v-2h7l-1-1v-1h-3zm15,8h2v1l-1,1h-1zm-3,1h1v1l-1,1h3v1c2,0,2-1,4-3h1l1,1v1c-1,3,0,3,1,4v2l-2,2c4,0,4-2,5-3h2v2l-1,2l-1,1h-1v2l-1,1l-2,1h-13l-1-2v-4l1-1h1l-1-1v-6l1-1z"/><path d="M100,274h1v2h-1zm1,5h1v2h-1zm-4,1h1v2h-1zm1,4h2l1,1v1h-1l-2-1z"/></g><g style="fill:rgb(37,60,100);fill-rule:evenodd;stroke:rgb(37,60,100);stroke-width:0.1;" id="l2"><path d="M76,22h1v2h-1zm8,2h1v2l-1,2h2v1l-1,1h-2c0-2-1-2-2-3v-1h3zm-17,2h1l1,1c0,2,1,1,3,1q0,2,1-2h1l1,2v5l1-1h1l1,1l1,2v1l2-1h2c1,1,1,0,2-1h2v4v-1l2-2h1v1l-1,3l-1,1h-7l-1-1c0,4,2,4,2,2h2l1,2v3h-1l-1-2q0-1-1,2h-1l-1-1c0-2-1-1-2-1l-1-1q-1-2,0,1v2h-1l-1-1v-1l-1,2h-1l2,1v1l-1,2h-1l-2-2v-3h1l1,1c0-2-2-1-3-1v3l-1,2h-1l-2-1v3l-1,1h-1v-5l-1,4l-2,1h-1v2l-3,3h-3l-3-1v4h-4v-2l1-1h1v-2l1-1c5,0,3-2,3-4h-1l-2-1l-1-1v-1h6l-1-1v-1q2-1-1,0h-1l-1-1v-1l3-1c2,0,2-1,3-2c3,0,2-3,2-6h4l-2-1v-1l1-4h1v4l1-1c2,0,2-1,3-2h1l-1-1z"/><path d="M126,27h2l1,6v2l-1,1c-2,0-2,5-1,3c6,0,5-2,5-4h-1l-1-1v-3h2l2,2v7l-1,1c-2,0-1,4-1,5h-2l-1-3c0-2-1-1-3-1v2h-1l-1-2v-1l-1,1h-2l-3-1v-1l1-1h2v2l2-2h1q1,2,0-1v-1l1-1h1v-2h1l-1-2zm12,0h1v4h-1zm3,3h1l1,1c0,4,1,4,2,5l3,6v2c-1,1,0,1,1,2v-7h1l1,1l1,3v2l-1,2l-1,1h-1v3h-1l-1-4v1h-1c0-7-1-7-2-8v3h-1l-2-2c0-2-1-2-3-4v-2h1l2,1z"/><path d="M136,33h2v1l-2,1h-1v-1zm11,0h2v2l-2,2h-1v-2zm-53,2h3v1l-1,1h-4v-1zm5,1h2v2l-5,5h-1v-1l4-4h1v-1l-3,3h-1v-1zm-8,2h4v1l-1,2l-1,1h-1v2h-1zm62,2h2v1h-2zm3,1h1l1,1v2l-1,1l1-1h1l1,1v2c-2,0-1,1-1,2h2v-2l2-1h1v1l-4,4h-1c0,2,1,2,3,3v2h-7v-1l3-3h-2l-1-1c0-2-1-1-3-1v-1c2,0,1-1,1-2l2-1h1v-2l-2,2h-1v-1l2-2h1z"/><path d="M138,42h1l1,1v2h-1l-1-1zm-21,2h1l1,1v1l-1,1h-1zm17,0h1v2h-1zm-39,1h1v2h-1zm40,2h2v1h-2zm17,4h1l1,1v3h-1l-1-3zm-103,1h3v2h-1l-2-1zm101,1h2v1h-2zm2,4h2v1h-2zm-105,6h3v1l-3,1h4v-2h1v3l-1,2h-1v4l-1,1h-1v2h2v5l-1,1h-1l1,2v2l-1,3h-1v4c-1,3,1,1,2,1v2l-1,2l-4,1h-2l2,1v3l1-3l1-1h1l1,1v3c-2,0-1,3-1,5h-1v-2l-2,2c-2,0-1,2-1,7l2-2h1v1l-1,2l-1,1h-3v-24h1v2l1-2h1v-2h-2v-4l1-5l1-3h1l1,1v1l-1,1h-1l1,4q0,4,1-2l1-3h1v-3h-2v-2l2-6l1-1h1v-1l-3,1h-1v5h-1v-5l1-4z"/><path d="M44,75h1v2h-1zm12,110h1l1,1v7l-3,6h-1v3l-1,3h-1l1,1v2l-1,7h1v6h1c0,4,1,4,2,7l1,4c0,4,1,4,5,12c0,2,1,2,2,3v1h2l2,1v3h2c0,2,1,2,3,4c0,2,1,2,3,4v1h2c0,2,1,2,4,5v2h3v3c-1,2,1,2,1-1h1l3,3c0,2,3,2,5,3l1,2l1,5v5h-97v-58l2-1c2,0,2-1,4-3l2-1c2,0,2-1,3-2c3,0,3-1,13-6c3,0,3-1,4-2l3-1c3,0,3-1,4-2c4,0,4-1,8-3c2,0,2-1,4-7l5-10h1v-3c3,0,2-1,2-3z"/><path d="M155,197h1c0,2,1,2,2,3l1,4c0,2,1,2,3,4v1h2l4,2l1,1v1h2l1,1v1h2l1,1v1h2v1l-1,2l2-2h1c0,3,1,3,2,4l-1-3v-1h2l3,1v2c-2,0-1,2-1,4h9l1,2v1l-1,1h-1c0-2-2-2-2-1h1c0,4,2,4,3,5v1h2l-3-3v-1h2v2h2v-2l4-4h-2v-1h2l1,1v1h3l2,1l1,1v1h-2l-2-1v3h-1l-1-1v-1l2-2c-2,0-2,1-4,3h-2v3c-1,1,0,1,1,2v1h2v-2h2v2l-1,1h-2v2l4-2h1v-5h1c0,4,1,4,2,5v1l1-1h2c0,3,2,1,3,1l-3-3v-1h1l4,2v1h3v2h-2l2,1v2h-1l-2-1c0,3,2,2,3,2v36h-4l4,1v6l-1,1h-33v-5l-1,5h-62v-1l1-2l1-1h1v-2h2v-2l2-1c2,0,2-1,4-3h1l1,1v-1l1-3l1-1h2v-3l1-1h1v-4l1-2l2-2c1,0,1-2,2-6l2-4l1-1h1v-3h-3v-1l2-4h1v-7l1-6l1-3h1l-1-1v-3l1-3h1l-1-6v-10h2l2,1l-2-4zm12,58v1h-2l1,3v1l-1,1h2zm42-6h1l1,3v1h4l-2-1l-1-3v-1l-1,1z"/><path d="M57,219h1v2h-1zm129,2h3l4,1l2,1v1h-6l-3-1zm10,3h2v1h-2v3h-1l-1-2v-1zm13,6h1l3,1l2,1l2,2v1h-3l-1-1v-2h-4zm9,5h1v1h-1z"/></g><g style="fill:rgb(196,151,146);fill-rule:evenodd;stroke:rgb(196,151,146);stroke-width:0.1;" id="l3"><path d="M99,55h10l1,1v1h2l1,1v1h8v1l17-1h5l4,2v2h2l2,2c0,2,1,2,2,3l1,3l1,6v6l-1,6l-1,2h1c0,4,1,4,2,5v1c-1,2,0,2,1,4c0,3,1,3,2,4l1,3c0,3,1,3,3,7l2,12l1,7c0,5,1,5,4,11l-1-3l-1-8v-4l1-4l1-2h1v-3l1-1c2,0,2-1,5-4h1l1,2v3h-3c0-2-1-1-2-1l1,1l1,2v1l1-1l2-1h1v5l-1,14l-1,1h-1l1,1v2h-1l-1-2v-2l1-9l-1,6h-1v7l-1,5h-1v3h2v2h-1l-1-1v3l-4,4h-1v-1l1-1h1v-2c2,0,2-2,1-2l-1-1v-1c1-3-2-3-4-4l1,9v1l-2,1h2v1c-3,0-3,1-4,3h-1l-2-2v-1l-1,1h-1v8l-1,1h-1v6l-3,3c-1,0-1,2-2,5l-1,1l-3,1h-3l-1-1c0-2-2-2-2-1l-4,4h-1v3c-2,0-2,2-3,5l-1,1c-2,0-2,2-4,6h-1l-1-1l1,2v1c-3,0-2,1-2,3l-2,2l-4,2h-18l-3-3v-1h-3c0-2-2-2-4-3v-1c1-2,0-2-3-3l-1-1v-2h-2v-2h1c4,1,2-1,1-3c0-3-2-3-4-4v3h-2v-3l1-2h-4l-1-1l-1-3v-1c1-1,0-1-2-3v-4c3,0,3-1,4-2h1l1,1l1,6v1c2,0,2-1,3-3l1-1h3l4,2l1,1v3h-2v-2h-2v3h3c0,3,2,3,4,5v1c3,0,3-3,2-3l-3-1l-1-3v-2l1-1l2-1h2c0,4,3,4,8,5v-1h1l-2-1v-1q3,0-5-1v-1l14-1h4c3,1,3,0,4-1l2-1h2l1,1c0,2,2,1,3,1c0-2-1-2-2-3c0-3-1-2-6-2l-3-1v1h-1h3v1l-1,1l-10,2h-5l-6-1l-3-3c0-3-2-2-4-2l-3-1l-1-1l-1-2c0-2-1-2-2-3v-1c-2,0-2,1-3,3l-2,1h-1l1,1v2h3v1l-1,1h-3l-1-2v-1h-2v-3l2-1h1c0-2-2-2-2-1l-1,1h-1l-1-3c0-2-1-2-3-3l-3-3v-1h-2v-6l1-3h-4l-1-1c0-2-1-2-2-3v-4l1-1h1v-2h3l2,2v1h5c2,1,2,0,3-2h-2l-1-1l-1-6v-2h5v-2c7,0,7-1,8-2h-1l-1-2v-2h2l2,1c0,5,1,5,3,6v1l-1,1h-1v3l-1,1h-1c0,2,2,1,4,1v-1l1-1h4v4h-1l-2-1l1,1v1h2v4l-1,1h-1v3c-2,0-2,1-3,3c-2,0-2,1-3,3l-1,1l-2,1h-1v5c-1,2,1,2,1,1l2-1h3v-4h2v-5c3,0,3-3,4-6h1v-7l1-2l1-1h1v-5h1v-1h-1l-1-1v1l-1,2h-2l-1-3v-4h1l2,1l2,2v-1c1-7,0-7-2-9v-1h-3v-3h-2v-1h-5l-1-1v-1h-5l-3-1v-1h-5l-2-1v-1h-2v2h-1v-3h-2v-1c2,0,2-6,1-6l-1-1v-2l1-2l2-2c3,0,3-3,2-3l-1-2v-4l1-2l1-1c2,0,2-1,3-2c2,0,2-5,3-9l1-2l2-1h1l-1-1v-1l1-1c4,0,4-1,5-2h1c1,1,1,0,3-2h2c5,1,5,0,6-1zm-2,91v2h-1l-1-1l1,4v1h3v-6l1-9h-2v6zm-14-13v-1h2l-1-1v-2h-1l-2-1v2l-1,1h3zm8,58v1l-1,2h2v-3zm54-21h2v-6h-2zm25-24l-1,1h-1v2h2zm-62,22h1l1,3l-1-4v-6l1-1h1l-1-1v-2l1-1h-4l-3-1l-1-1v-1l-11,1h-1l3,3v2h2v1h4l7,1l1,1zm23-4h1l2,1v2h1l2,2v2h1l2,2v-3h-1l-1-2v-2h-1l-2-1l-1-1v-1h-2l-1-2l-1-3v1l-1,2h1l1,2zm-38-5h-2v2h2zm21-6v-2l2-6l-1,1h-1l-1-3v-3h2v3h2v-3h1l1,2v1l-1,1h5l6,6v2h1l5,5v1l-2,1h2l1,1v1l3-1h3v-2h-6v-1h7v-1l2-2h1v-3l1-1h2l-2-1v-2l2-1h-3v-3h1l6,2v-1l1-4h2v-2h1v-4l1-1h4l-1-2v-1l1-2h-2v-4l2-1h-1l-1-1l-1-2v-2h-2v3h-1l-1-1v3l-1,1h-1v2h4v1h-4v1l-1,1h-2v2l-1,1h-2l1,2v2h-2v3h-8l-9-1l-1-1v-1h-2v-1h-4v-2h-2v-1l-2,1h-2v-2l1-3h-6v-2l1-4l1-1h-1v-3h-1l-1-2v-1l2-2h3v-1l1-3h6v2h-2v1l-5,5h-1v6l4-1h2l2,1l1,1v-1l2-2h2v3h1l1,1v1h5v-1l1-1h2l1,1l-1-1v-3h2v2h1l3,3v-1l1-1h2v-2l1-2l-1,1h-1l-2-1l-1-1v-1h-4l-3-1v-1l1-1l-2,1h-6v-1l1-1h7l2,1v-1l2-1h3v3h3l1,1v1h2l2,2v-5h-1l-4-4v-1l-3,1h-4v-1l1-2l1-1h-5l-1-1v1h-3v1l-2,1h-8v-1l4-1h5v-1l3-1h9l1,1v1h2l2,2v1l3-1h2l-1-1v-2h-1l-1-1v-2h-2v-1h3l-2-1l-1-2v-1l1-4h-3v-2h3v-2h-3v-2l1-3h1l-1-3v-3h-1l-1-2v-3l1-1h1v2h3l-1-1v-2h-2l-1-4v-4h-1l-2-2v-1h-6v1l-1,1h-1l-6-1v-1h-18l-1-1v-1l-3,1h-5v1h-2v2l-1,1h-2l-1-1l-1-2v2l-2,1h-2v3l-1,1h-4v4l-1,1h-1v2h4v1l-5,1h-1v2h1l1,1v2l-2,2h-1v3h2v1h-2v2h-1v6h1v4h3l1,1v1l-1,1h-4v2h4v2h5v2h3v1l1-1h1l1,1v2h3l4,2l1,2v1l-1,3l-1,1h2v2l-1,3h1l1,5v8l-1,5l-1,2h-1v5h1l2,1l1,1v1l4-2h4zm21,18h-1l-2-2v3h3zm-15-47h-2v1h2zm-2,4l3,3zm29,1h1v-2h-1zm12,22h1v3h2v-1l1-3h1l-1-1v-6l1-2l-1,2l-1,1h-1v6zm-2,6v1h1l1,1v1l2-2h2v-1l1-4l-1,4zm-33-10h-2v6h1l1,1v1h2v2h3l-1-2v-1h-2v-5h-1l-1-1z"/><path d="M107,114h1v2h-1zm17,1h2v1c-2,0-2,1-3,2l-3,1h-2v-1l1-1l2-1zm51,0h1v1l-3,3h-1v-1zm-137,14h2v6h-1l-1-5zm22,1h2v2l-1,2h-1zm-18,5h1l1,1v5c-1,2,0,2,1,4v1l-1,1h-1l-1-1zm73,0h2v1h-2zm4,1h1v3h-1zm-73,14h1v3h-1zm122,4h1v3h-2v-2zm-71,2h1l3,1v1h-3l-1-1zm-49,4h1v3h-1zm38,9h2v3h-1l-1-2zm30,15h1v2h-1zm2,2h1l1,1v1l-1,1h-1l-1-1v-1zm0,6h2v1h-2zm20,4h1v2h-1zm13,2h1v6h-1z"/><path d="M106,200h1v3h-1zm45,11h1v2h-1zm-38,68h2l2,1v1h-4zm-2,2h1v3h-2v-2zm2,3h5v3h-1l-4-1zm-5,1h2v2h-1l-1-1z"/></g><g style="fill:rgb(219,173,169);fill-rule:evenodd;stroke:rgb(219,173,169);stroke-width:0.1;" id="l4"><path d="M107,59h3l1,1v1l2-1h2l14,1l6,1v1l2-2h6l3,3l1,4v4h2l1,2v1h-3c0-2-1-2-1-1c-1,3,0,3,1,5l1,3v3l-1,3l-1,2h3v2h-3v2h3v4l-1,1h1v2h2v1l-3,1h2c0,2,1,2,2,3l1,2v1l-2,1h-3l-2-2v-1h-2l-1-1v-1l-4,1h-3c-2-1-2,0-5,1l-5,1c-4,0-4,1-7,2h-1l-2-1v3l-1,1c-3,0-3,1-4,2h-1l1,1l1,2l1,3v1l-1,4l-1,2h6v3l-1,2l2-1h2l2,1v2h4l2,1l1,1v1h9v1l4-1h2l2,1v-3c2,0,1-2,1-4c2,0,2-1,3-3c2,0,2-1,3-2h4l-4-1v-2l1-1h1v-3h1l1,1v-3h2l1,2c0,2,1,2,2,3v1h-2v4h2v5l-1,1c-4,0-4,4-5,6h-2v4l-1,1h-3l-3-1l-1-1v3h3v1h-2v2h2v1l-2,1h-1v3l-3,3l-7,1h6v2l-3,1h-3l-1-1v-1h-2v-1h2l-6-6c0-2-1-2-6-7v-1h-5v-4l-1,3h-2v-3h-2l2,6v-1h1v3l-1,3l-1,2h-1c-4-1-4,0-6,1h-2l-1-1v-1h-2l-1-1v-5l1-2h1v-5h1l-1-1v-4c1-3,0-3-1-8v-3l1-2h-2v-1l1-3l1-1h-1c0-2-2-2-4-3v-1h-3l-1-2v-1l-1,1h-1l-3-1v-2h-5v-2h-4v-2l4-1h1l-1-1v-1l-1,1h-1l-1-1l-1-4v-6l1-2h2l-2-1v-3l2-2h1c0-2-1-2-2-3v-2l1-1h5l-4-1v-2l1-1h1v-4c4,0,4-1,5-4l2-1h2v-2h1l1,2v1c2,0,2-1,3-3l2-1zm0,55v2h1v-2zm12,25h1v-3h-1zm-2-3v-1h-2v1z"/><path d="M149,84h1v2h-1zm5,25h1v4h-1zm3,4h1l2,2v1l-2,1h-1zm-23,2h2v1h-2zm6,1h3v1h-3zm35,0h2v1l-1,1h-1l1,1v2h-2v-1l1-1l-1,1h-2v-1zm-29,4h1v2h-1zm-32,4h3l2,2v1h-2l-1-1v-1h-2zm60,0h1l1,1v7l-1,4h-1v9l-1,1h-1v-11l1-1h1l-1-3v-3zm-12,1h1v2h-1zm-25,1h1l6,1v3l-1,1h-7l1,1v1h2v1h-2v2h-1l-3-1l-2-1v-1l1-2h-2v-1l1-1c4,0,4-1,6-3z"/><path d="M170,127h1v2h-1zm-89,1h2l1,1l1,2v1h-2l-3-1v-1zm45,0h2l1,1v1h-1l-2-1zm43,3h1l2,1v2h-3zm-89,1h1l1,1v1l-2,1h-1v-2zm47,0h2v1h-2zm-52,9h2v2c-2,0-2,1-3,2h-2v-1zm7,3h1l1,3v1l-1,1h-1l-1-1v-3zm38,5h1v3h-1zm46,0h2l3,1v3c-1,1,0,1,1,2v2h-2v2l-2,2h-1l-2-1v-1c2,0,1-1,1-10zm1,8h2v-3l-1,1h-1zm-49-7h1v2h-2v-1zm4,5h1l1,1l1,2v1h2l2,2l1,2v3h-1c0-2-2-1-5-1v-1c1-2,0-2-1-3l-1-2zm-5,5h3v2h2v2h-2l-1-1v-1c-2,0-1,2-1,3h2v3l-1,1h-1l-1-1l-1-2v-1l-1,2h-3l-1-4v-1l1-1h1c2,1,2,0,4-1z"/><path d="M133,161h2v1h-2zm-28,1h1l1,1v4h-1l-1-1zm4,12h2v1h-2zm28,0h1l1,2v8h-2v-3l-1,3l-1,1h-1l1,2v2c-4,0-4,1-5,2c-3,0-1,1-1,4h-2l-1-1v-1l-2,1h-3v4l1-2l1-1h1v6l-1,1h-1v3h-1l-2-1l1,1v1l-2,1c-3,0-3,1-5,2h-4l-5-1l-4-1v-1l1-1h1l-1-2v-6c3,0,3-1,5-3c2,0,1-2,1-3h-2v-1l1-1h2v1l-1,1h2v1l1-1c6,0,5-2,5-3h-2v-1c1-2-1-2-2-3v-1h10c1,2,1,1,2-3l2-2h2v1c-1,2,3,2,5,3v-1l2-2c2,0,2-2,3-5zm-21,10v2h1v-2zm-10,19h1v-3h-1zm-3,2h-1v1h1zm20-5v-2h-1v2zm-5-7h2v-1h-2zm0-7v1l-1,1h1l1,1v-1l1-1h-1z"/><path d="M132,175h1v2h-1zm-33,5h2l8,1v1h-3l2,1v1l-1,1h-5l-3-1zm-1,21h1l1,2v1l-1,1h-1l-1-1v-2z"/></g><g style="fill:rgb(158,121,109);fill-rule:evenodd;stroke:rgb(158,121,109);stroke-width:0.1;" id="l5"><path d="M98,21h2v2h-2zm-6,3h2v1h-2zm14,0h1v2l-1,1h-1v-2zm10,0h2v2l2-2h1v1l-1,1h-1v2l-1,1h-1v-1c1-2,0-2-1-3zm16,2h2v1l-2,1h-3v-1zm-25,1h2v1l-1,1h2v1h-5v-1zm8,1h1v3h-1zm-2,1h1v1l-2,2h-1v-1zm31,1h1v2h-1zm-28,2h1v1l-1,1h-1v-1zm32,4h1v2h-1zm-8,6h1v2h-1zm-47,1h1v4h-1zm-45,1h1l1,1v1h-1l-1-1zm89,0h1l1,1v1h-1l-1-1zm-5,1h1l1,1v1h-1l-1-1zm-28,1h2v3h-2zm4,1h2v1l-1,1h-1zm-21,1h1l1,1v1c-1,2,0,2,1,5v1c-3,0-3,1-5,3c-4,0-3,3-3,4l-1,1h-2v2c-1,0-1,4-2,9c-2,0-2,1-3,2c-2,0-2,1-3,3h-1l1,6v2h-2q0-1-1,3l-1,2h-1v10l-1,1h-1l1,1v1l-1,1h-1v2l2-2l2-1h8l3,1l2,1l1,1v1h-1l-3-1l-2-1v-1l-8,1c-1,0-1,1,8,1c0,7,2,6,4,6v1l-1,1h-3l-2-1l1,1v1h-2v2l-2,1h-1v-1l2-2h1v-1l-2,1h-2v2c-2,0-1,2-1,3l1-1h1v5l-1,1l1-1h2v-3l1-1h2v1c-2,0-1,2-1,3l-2,2c-3,0-3,3-2,3l1,2v2l-2,1h-1c0-2-1-2-2-3v-1h-2l-1-3v-2h-2v-1l3-1h-2c-2-1-2,0-3,2l-1,1h-1c0,8,1,8,2,10c0,3,1,3,2,5v1l1-1h1l2,2v1h4v3l-1,2h-1c0,3,1,3,2,5v2h2l3,3v1h2l1,1v10l-2,2h-1c0,5,1,5,2,9c0,2,1,2,2,3c0,3,1,3,2,4l1,2v4l1-1h2l1,1v2h2v4l1-1h1c0,2,1,2,2,3c0,2,2,1,3,1v2h2l1,1v1c-2,0-1,1-1,2h-5l-6-6c0-3-2-3-4-4v-1c-3,0-3,2-4,3h-1c0-4-1-4-5-5v-2h-2c0-2-1-2-2-3c0-3-1-3-2-4c0-3-1-3-2-4c0-2-1-2-2-3c0-5-1-5-2-7v1h-1v-1l1-1h1l-1-3v-1c1-1,0-1-1-5c0-7-1-7-3-8v-4l1-1h1l-2-4v-1l1-1h1c0-3-1-3-2-4v-1l1-1h-1c0-2-1-2-2-3c0-2-1-2-2-3l-1-4v-13c2,0,1-3,1-6l1-4l2-1h2v-4h1v2c2,0,2-3,1-3l-1-1v-2c2,0,1-3,1-5c2,0,2-5,1-5l-1-1v-3l1-5l2-4h1q1,5,1-2l1-1c1,0,1-2,2-5l2-4h1l1,1v-1l2-4l2-1h1l-1-2v-1h7v-1c2,0,1-1,1-3h2l2,2v-3h2zm-18,67v1h4v-2l-3,1z"/><path d="M99,49h2l1,1v1l-1,3h-1l-3-1v2h-1l-1-1v2h-1l-1-1v-1h-2l-1-1v-1h6l1,1v-2h-1v-1h1l1,1v1c2,0,2-1,1-1zm6,3h1l1,1v1h2v1h4v1l5-1h1v2h2v1h-6l-6-2l-2-1v-1l-1,1h-1l-2-1v-1zm34,3h1l5,1v2h-3l-4-1v1c-5,0-5,1-8,2h-1l-6-1l-1-1v-1h2c7,1,7,0,10-1h1c2,1,2,0,4-1zm7,3h1l2,1v2h2l1,2v2h-1c0-2-1-2-5-6zm13,3h1c0,3,1,3,3,5v1l1-1h1v2h-2l-2-1l-3-3v-1z"/><path d="M45,63h1v2h-1zm110,1h1l1,2v2h-1l-1-1zm-3,2h1l1,1v1h-1l-1-1zm2,3h1l3,1v1h-3l-1-1zm6,12h1v2h-1zm-3,2h1l2,2v1h-1l-2-2zm-1,2h1l1,1c0,2,2,2,4,3l1,1v1l2-1h1v3l-1,1h-1v-2v1l-1,1h-3l-2-2l-1-2l-1-4zm2,11h2l1,1v1l-2,2h-1zm5,5h3v1l-1,1h-1v2h1c0,2,1,2,2,3v-1h1v5l-1,1h-1l1,3v10h-1l-1-2v-12h-1v-3h-2v-1l1-1h1c0-2-1-2-1-1l-1,1h-1v-2l2-2h1l-1-1zm2,9h1v2h1v-2z"/><path d="M53,105h1v2h-1zm75,4h6v1l-6,1h-2v-1zm-40,1h3l1,1c0,2,1,2,3,4v1h4l1,1v7h-2v-2h-4v3h-2l2,2v4c-3,0-3,2-4,3l-2,1c-2,0-2,1-3,2h-3v-1l2-1c2,0,2-1,3-2h1v-2h1v-3l1-1h-2l-1-3v-2h1l1,2c0,2,2,2,2,1l1-1h1l-2-2v-1l1-1h2l2,1l-1-3v-2h-2v-1h-1v1l-1,1h2l1,1v1h-2l-1-1v-1h-3v-2h1l1,1v-3h-2v-1h3l-3-1zm4,17v-1h-1v1zm32-16h1v2h4v1l-5,1h-2v-2h2z"/><path d="M80,113h2l3,1v1h-5zm49,3h3v1h-3zm-4,1h1v1l-1,1h-1v-1zm-87,1h3c0,2,1,2,2,3l1,5v4h-1l-1-2l-1-5c0-3-1-3-3-4zm49,0h1v2l-1,1h-1v-1zm28,0h2l1,1v1c2,0,2-1,3-2h1v1l-1,1h2l1,1v1l-1,1h-2v-1l1-1l-4,1h-1v-3h-2v4h-1v-4zm24,0h3l2,2v1h-2v-2h-3zm31,0h1v3h-1zm-44,2h1l1,1l1,2v1h-1l-1-1l-1-2zm3,0h2v1l-1,1h-1zm4,0h2v2h-2zm-97,2h1l2,1l2,2v9l3-3h1c0,3,1,3,2,5c0,12,1,12,2,14l1,9v5h-3l-2-1l-1-1v-1h1l1,1v-2h-2c0-4-2-2-3-2l-1-1v-2h1l1,2v-2l1-1h1v-4l1-2l-1,1h-2l-1-1v-1l1-1h1c3,1,3-1,1-1v-2c2,0,2-3,1-3c0-5-3-5-3,6h-1l-1-2v-15h-1c0-4-2-2-3-2zm9,31h1l2,4v-7h-2v1zm3,10h1v-3h-1z"/><path d="M169,122h1v2l-1,3h-1v-3zm-94,1h1l1,1v1h-1l-1-1zm59,0h1v1l-2,2h-3v-1c3,0,3-1,4-2zm9,0h3v1l-3,1h-1v-1zm-62,1h2v1h-2zm84,4h1v3h-1zm-129,2h2l1,2l1,3v1l-1,1h-1v3h-1l-1-3zm59,0h3v2h-3zm72,0h1v3h-1zm0,4h2v1l-2,1h-1v-1zm-75,1h2l1,1v1h-2l-1-1zm84,0h1v2h-1zm-8,1h1v3l-1,1h-1l-1-1v-2h1l1,2zm-96,2h3v1h-3zm-36,3h1l1,2v1h-1l-1-1zm58,0h1v5l-1,3h-3v5c-2,0-2,2-3,4l-2,1h-2l-1-2v-4l1-1c2,0,2-1,3-3l1-1h2v-2l1-1h2v-3z"/><path d="M98,143h1v3h-1zm-59,3h1v2h-1zm54,7h2v1l-1,2h-1l-1-1v-1zm5,0h4l3,3v1l-1,1h2v1c-2,0-2,1-3,2h-1c0-3-1-3-3-4v-1h3v-2h-4zm25,0h2v1h-2zm-27,3h1v3h3v1h-3l-2-1v-2zm11,1h2v1h-2zm2,2h1v1l-2,2h-1v-1zm21,2h1l1,1v1h2l2,2l1,1v2h-1l-5-5l-1-1zm-84,4h2v1h-2zm5,1h1v2h-1zm34,0h2l1,1v1h-1l-2-1zm-2,7h3l1,1v1c-4,0-4,1-5,2h-1l1,2v1h-2v-3l2-2h1zm6,1h6l2,1v1h-7l-1-1z"/><path d="M122,176h2v1h-2zm7,0h1v3h-1zm-70,16h1c0,3,1,3,2,4l1,2c0,3,1,3,2,5l1,5v3l-2,2h1c0,2,1,2,3,4v9l-3,3c4,0,4-5,5-7h1l1,2v1c-1,1,0,1,1,4v3h-3l-1-2v2h-3v2h-2l-1-5v-11h-2v-11l1-2h1c0-4-2-4-2-1h-1l-1-3zm72,12h3v1l-1,1h-1l-1-1zm21,3h1v3h-1zm-23,1h1l1,1v1h2l1,1c0,2,1,2,2,3c0,4,2,4,2,2h2c0,2,4,1,6,1v2l-1,1h-1c-2-1-2,1-1,1l2,1l1,1v2h-3v2h-1v2h2l1,1v3h-1c-5-1-5,4-6,5h1l2,1v2l-1,1h-1v2h-2v2l-2,2h-1v2l-2,2h-2l-1-1l1,3v1l-3,3c-3,0-2,3-2,6l-2,2h-1l1,4v3l-2,2h-1v2h4v2l-1,1h-1v2h-4v-1l1-1h1l-1-3l-1-4v-5h3c0-5-6-4-17-4c-6-1-5,1-5,3l-1,1h3l1,1v1c-7,0-7,2-5,2v3h-3v-1l1-2l-1,1h-1l-2-1l-1-1c0-2-1-2-2-3v-1l3-1h-3l-1-2c0-2-1-2-3-4v-6h-1v-2l-1,2h-1l-1-2v-3h3l1,1l1,2c0,3,1,3,2,5c0,2,1,1,4,1l1,2v2h4v-2h4l1,1v1c7,0,7-1,12-2h3l1,1l-2-2v-1l1-2h-3v-4h3c0,4,2,2,3,2v-2l2-1h1l1,1v2c2,0,1-2,1-4l4-4h1c0-3-4-3-4-2l-1,1h-2c-7-1-7,1-10,2c-3,0-3,1-5,2h-3l-6-1l-1-3c0-2-1-2-4-3l-4-4v-2h-2l-1-2v-3l1-1h1v-2l2-2q1,0-2-1v-2h2l1,1v1h7c0,2,1,2,4,3v1l1-2l2-2h1l3,3v-2l1-1h-2v-1l5-1c2,0,1-1,1-3h1c2,1,2,0,4-1h3l-2-1v-1l2-1h2v2l2-2c2,0,1-2,1-4l-1,2l-4,1h-3v-1c3,0,3-1,4-2h1l1,1v-2c2,0,2-1,4-3zm-15,30h1l1,1v1h3v-1l1-1h10v-1l2-2h1v-3l1-3h3l-1-2v-2h-2v3h-3l-1-3v-2h4v-1l1-2h1l1,3v-1h2v-2h-2l-1-1v-1l-2,2h-2l-1-1v-1h-2v4l-3,1h-2v1l-2,2h-5v1l-1,3h-1v2h2v1l-1,3zm0-5h1v-1h-1zm-6,1v1l-3,1h5v-2zm0,4h-1v1l-1,2h2l1,3v-1l1-1h1v-3h-3z"/><path d="M146,209h1v2h-1zm-50,3h2l1,1v1h10l6,1v1h-6l-11-1l-2-2zm-14,5h2v1h-2zm66,6h1v2h-1zm-1,3h1v3h-1zm-30,3h5v2l-2,1h-2l-1-1zm12,0h1l1,3v1l-2,2h-1v-3zm13,5h2v1l-1,1h-1v2h-1v-3zm-75,1h1v3h-1zm8,2h1v2h-1zm3,8h1l1,1v1h-2zm27,25h8v3l1-1h1v-2h1v4h-6c-3-1-3,0-6,3h-1v2h-2v-1l1-1h-2v-3v4h-3v-1l1-4l1-1l9-1h-3zm5,2v1h1v-1z"/><path d="M98,279h2c0,2,1,2,2,3v2h-2c0-3-1-3-2-4zm3,6h1l2,1l1,1v1h-3l-1-2v1l-1,1h-1v-1zm13,2h2v1h-2z"/></g><g style="fill:rgb(137,103,94);fill-rule:evenodd;stroke:rgb(137,103,94);stroke-width:0.1;" id="l6"><path d="M102,23h2v1h-2zm-11,1h1v2h-2v-1zm30,0h1v1l-1,1h-1v-1zm7,0h1v1l-1,1h-4v-1zm-25,1h2v2h-2zm4,0h1v1l-1,1h-1v-1zm-12,1h1l1,1v1h-1l-1-1zm6,0h1v1l-1,1h-2v-1zm15,0h1v1l-1,1h-1v-1zm-36,1h1v2h-1zm6,0h1v1l1-1h1v1l-1,1h-1l-1-1zm17,1h1l1,2v1h-1l-1-1zm15,0h1v6h-2v4h-1l-1-1v-1h-2v-1c2,0,2-1,3-2h1v-4zm-25,1h3v2h-2l-1-1zm31,0h1v2h-1zm-18,1h1v2l-1,1h-1v-1zm3,0h1l1,1v1h-1l-1-1zm-8,2h1c0,3,1,2,3,2l1,1v1h-4l-3-1v-1z"/><path d="M111,40h1v1l-1,1h-1v-1zm-7,2h2v4h-2l-1-1v-1zm-4,1h1l1,2v5l1-3h1c0,2,5,1,6,1l1,3q0,1,1-3l1-3h2v1c-1,7,1,6,3,6l6,1l1,2v-1l1-1c2,0,1-2,1-3h1l1,1c0,3,3,3,2,1v-1l1-1h1v2h2l1,2v1l2-2h4l1,1v1h5l1,1c0,2,1,2,2,3v1h2l1,2v1h2v1c-1,3,0,3,1,4v2h-2l-1-1c0-2-1-2-2-3l-1-3v-2h-2c0-2-2-2-4-3v-2h-5c-1-1-1,0-3,1h-2c-1-1-1,0-4,1h-10l-2-1c0-2-1-1-6-1l-4-1l-2-1l-1-1v-1l-1,1h-2c0-2-1-2-2-3v-1h-3v-2h2z"/><path d="M141,43h1v3h-1zm-49,2h1l1,2c0,2,1,1,3,1c0,2,1,2,3,3v1h-2c-2-2-2,0-3,1h-4l-2-2v-1l1-1h2zm17,0h2v2h-3v-1zm-62,1h2v1h-2zm91,0h2v1h-2zm-52,1h2l1,1v1h-1l-1-1v4h-2v3h-1l-1-1v-1c-2,0-1,2-1,3l-2,1h-7l1,1v2l-1,1c-2,0-2,2-3,4l-1,1h-1l-1-1v2l-1,2h-1v3l-1,2l-1,1h-1v7h-1c0-5-2-1-3-1v5c-1,3,0,3,1,4v5c-2,0-1,2-1,5c-2,0-2,2-1,2l1,1v3h-2q0-2-1,2c-2,0-1,1-1,6h-1c0-5-2-5-2,5c-2,0-2,13-1,13c0,4,1,4,2,5c0,2,1,2,2,3l1,2v1c-1,1,0,1,1,2v3l-1,1h-1l1,1l1,2v2l-1,1h-1c0,4,2,4,3,5c0,7,1,7,2,11v5l-2,2l1-1h1l1,2c0,5,1,5,2,6c0,2,1,2,2,3c0,3,1,3,2,4c0,3,1,3,2,4v2h2v2h4l1,1v4l1-1h1v-2h3l4,2c0,3,1,3,6,8v1h7l1,1v1h11v1l6-1h7v-1h4v-2h1l1,2v2c-2,0-2,1-3,2h-1c0-2-2-2-2-1h-2l2,1v1c-3,0-3,1-5,2h-2l-1-1l1,2v1l-2,1h-5l2,1v1l-1,2h-1l-2-2v-1l-2,2h-1v2h-1l-3-1l-1-1c0-2-7-2-7-1l-2,2h-1v2l-1,1h-1l1,3v2h2c0,2,1,2,4,5v1h3l1,1l1,2c0,3,6,3,9,4v-1l2-1l3-1h3v-2h7c2,1,2,0,3-1h4v3l-4,4h-1l1,2v2h-2c0-2-1-2-2-3v1h-2v2l-2,2h-1v2c-1,1,0,1,1,2v1h-1c-3-1-3,0-8,1h-7l-1-1v-1h-4v2h-4l-1-2c0-2-3-1-4-1l-2-4l-1-3c0-2-1-2-4-3l1,3v2l1-2h1l1,2l1,3v2c-1,1,0,1,2,3l1,2v2h3l1,1v1h-1l-3-1l2,2v2h1v1h-1l-2-1c0-2-1-2-2-3l-3-6c0-2-1-2-2-3l-2-4c0-2-1-2-5-3c0-3-1-3-2-4v-1h-2c0-3-1-3-3-4l-1-2c0-2-1-2-2-3l-1-2c0-3-1-3-2-5l-1-4l-1-18v-8h1v3l1-3c2,0,2-3,1-3c0-2-1-2-2-3l-1-3c0-7-1-7-3-9l-1-2l-3-9c0-6-4-6-8-7l-3-3v-4h1v2h2l1,2v1h2v1c3,0,2-5,2-14h-1l-1-2l-1-12v-1c2,0,1-8,1-12l2-10l2-8h1v-3h-3v-1l1-2h1c0,2,2,2,2,1l1-2h2v-4h1l-1-3c0-2-1-2-3-4v-1l2-1h1c0-3-2-3-2-2l-1,1h-2v-1c2,0,1-1,1-3l1-3l1-1h1l-1-1v-5l1-2h1v-3l6-6h2v-2l4-2h2l1,1l-1-1v-2h2v2l1-2h3l2,1v-3l2-1h4v-1h2zm-33,58v2h1v-2zm27,141h-1l-1-1v2h2zm36,6h-3l1,1v2l-1,1h3l-1-2v-1zm-34-34h2v-1h-2zm-7,21h1v-2h-1zm16-15h-1l-2-1v2h3zm-23,14v-3h-1v3zm-2-4v-2h3v-2h1v2h3l-2-6v-4l-1,2h-1v5l-1,1h-1l-2-1v-1l2-2h1v-9h-1l-2-2l-1-2v-1l1-1h1l-1-3v-4h1l1,4v3h1v2h1l1,1l1,2v5h1l1,2l1,3l-1-5v-3h2v-3h-1v-3h-1l-1-2v-2h-1l-1-1v-3h-1l-2-4v-3h-1l-3-1l2,4v3h-1v-2v6h-1v-2l-1,2h-1v11h2l1,7v9z"/><path d="M133,47h2v1h-2zm-88,11h2v1h-2zm117,3h1v2h-1zm2,2h1l1,1v1h-1l-1-1zm1,8h1v2h-1zm0,12h3l1,1v1h-2l-2-1zm-8,1h1l4,4v1h-2l-2-1l-1-2zm7,8h1l1,1v3l-1,1h-1l1,1v1h-1l-1-1v-1l1-1h1l-1-3zm-3,2h1l1,1v1h-1l-1-1zm4,6h1l1,1v2l-1,4h-1zm-106,7h1v2l-1,6l-1,2l-1,1h-1v-2l1-7h2zm8,0h8l2,1v1h3v1l1-1h4l6,2v1c-3,0-1,1-1,4h-1l-1-1c0,2,3,2,3,1l1-1h1l2,1l1,2v3h-2c-2-1-2,0-3,1h1l1,1v1l-2,2h-2l-2-4v-2h-2l-1-1v-1h-2v-1c-4,0-4,1-7,2h-3l-1-1v3h-1l-1-1l1,1v2h2v-2l1-1h2v1h-2v2l-1,1h-1v3h-2l-1-1v-2l1-2l-1,1h-1l-1-1v-2h1v2l1-2h1l-1-1v-1l2-1h2l2,1l-1-1v-1h2c3,1,3,0,4-1c6-1,3-1-4-2l-1-1v-1l1-2l-6,1h-1l-2-1v-1zm21,13v-2h-1v2zm4-1h2l-1-1v-1h-2l1,1z"/><path d="M128,110h6v2l-2,1h-7v-2zm38,0h1v2h2v1c-1,1,0,1,1,2l1,2v1l-1,4l-1,2h-1v6l-1,3h-2v-2l1-5h1l-1-2zm-105,3h7v2l-2,1h-2l2,1v1l-2,1h-3v-1l1-2h1l-2-1zm-20,1h1v1l-1,3l-3,1h4l1,1v1h-1l-1-1l1,3c0,5,1,5,2,7v-2h1v3l-3,3h-1v3h-1c0,7,1,7,2,9v1l-1,1h1l2,1v-1h1v2l-1,4l-1,1h-1v2h-1c0-2-1-2-2-3l-1-5l-1-6v-3l1-3l1-1h1v-2h1l-1-5v-2c1-2,0-2-1-3v-1h-2l-1-1v-6c4,0,4-1,5-2zm-2,34h1v-2h-1z"/><path d="M123,117h8v1h-3l3,1v1h-2v2h-1l-1-1v-1l-1,1h-2v-1l1-2l-2,2h-2v-1zm11,0h4l1,1v1h3v2h3l1,1v1l-3,1h-2v-1c1-2-1-2-2-3l1,1v1h-1l-1-1v-1l1-1h-1l-4-1zm-19,2h2v4h-2zm-38,1h2v2h-1l-1-1zm5,1h1v3l-2,1h-4l-2-2v-1h1l1,1v1c4,0,4-1,5-3zm51,1h2v1l-2,2h-4v-1h4zm-90,2h1v2h-1zm22,2h2v1l-1,1h-1zm-20,6h1v2h-1zm122,3h2v1l-1,3h-1l-1-2v-1zm-78,15h1v2l-1,1h-1v-1z"/><path d="M123,150h2v3h-2zm-28,3h3v1l-1,1l2-1h3v2h-2c-1-1-1,0-4,1h-2v-3zm20,0h3l1,1v2l-4,1h-2l-1-1v-1l1-1zm-9,5h3v2l-1,1h-3l-1-1v-1zm-37,11h3l1,2v3h-2c0-3-1-3-2-4zm18,5h2l1,1v1h9l7,1l5,1v1h3l-3-1v-1l10-1h1l2,1v1l-2,1l-7,1h-16c-2-1-2,0-3,1l-2,1h-1l-1-1v-1h-2l-2-2v-1c-3,0-3,1-5,2h-2v-2l2-2h1v1l-1,1h2v-2z"/><path d="M126,175h3v1h-2l2,1v1h-2l-1-1zm-54,10h1l1,1l1,2v3h-2l-1-2zm3,8h1v2h-1zm-16,3h1v2h-1zm94,0h1v2h-1zm-91,12h1v3h-1zm-4,2h1v6h-1zm94,0h1v3h-1zm-2,8h1v3l-1,2h-1v-2zm-3,11h1v1l-1,1h-1v2l-5,10l-1,1h-1v3l-1,2h-2v2l-1,1h-1v2l-1,1h-1v3h2v1h2v-2h2v-2h3c0,2,1,2,2,3v1h-2v-2h-3v2h-2l2,1v1h3v1l-1,1h-2v-2h-5v-2h-2v4h-2v3h-1l1,1c0,3,1,3,1,2l3-3h1v-3l1-1h1v5l-3,3h-1v2l-1,1h-2v4l-1,1h-1v-1l1-2h-2v2l-1,1h-1l-4-1v-2l2-2h1l-1-3v-4l2-2h1l-1-3v-3c3,0,3-1,5-3h1l-1-1v-3h1c2,1,2,0,3-1h1v-2l2-2h1v-2h2v-2l1-1h1v-3l1-2l1-1h1v-2l1-2z"/><path d="M88,232h2v2l-1,1h-1zm13,13h1v2h-2v-1zm-7,27h1v4h-2l-2-2v-1zm1,5h1l1,1v2h-1l-1-2zm5,0h2v1l-1,1h-3v-1zm-4,7h1l1,1v1h-1l-1-1zm5,2h1v2h-2v-1zm-3,1h1v1h-1z"/></g><g style="fill:rgb(95,94,107);fill-rule:evenodd;stroke:rgb(95,94,107);stroke-width:0.1;" id="l7"><path d="M105,19h1v2h-1zm-34,2h2c0,2,2,2,2,1l1-1h2l1,7v2l2-2h1c0,2,7,2,6,1v-1l-1,1h-1l-2-1c0-2-3-1-4-1l-1-3v-2h3c0,3,2,1,3,1v1l-1,2l1-2l2-1h2l1,2v1h2v-1l2-1h1l-1-1v-1l1-1h2l1,1l1,4c0,2,2,1,5,1v1c-1,2,0,2,1,3v-1l1-1h1v1l-1,2l-1,1l3-3h1l1,1v1c2,0,2-1,3-2h1l-1-1v-1l1-1h1v-2h2v1l-1,1h-1v5l-2,2h-1l1,1v1h2l2,2v2l-1,5h-3c-2-1-2,0-4,1h-1v3h-1l-2-4v-2l1-1h-2l-1-1v-1h1l2,1l-1-2v-1h-2v2h-1l1,4v-1h1v4h-1l-1-1l1,2v2h-1l-1-1v-3c1-1,0-1-1-3v-3l-2,4c-2,0-2,1-3,2h-1v-3l-1,2h-1v-2l1-1h1v-3l4-4h1v2c-2,0-2,2-3,4h-1c0,3,2,1,3,1v-2l2-2l1-1h1l-1-1v-1c1-5-3-5-4-6l-1-4v-1h-1l1,3v1l-1,1l-2,1h4l1,1v1l-1,2l-1,1h-1l-1-1v-3c-2,0-1,1-1,2h-2c0,2,1,1,2,1v2h-2v3l-1,1h-1l1,1l1,3v1c-1,2,0,2,1,3v1l-2,1h-1l-1-2v-1c-2,0-2,1-4,3l-4,1h-2v2h-1v-4h1l1,1v-1c4,0,4-1,6-2h1l-1-3v-3h1v1l2-2h1v-3h1c0-2-2-1-3-1v-1l1-2l1-1l-1,1h-2l-1-1v-1h-2v1h-3v3h-1l-1-1v-2l1-2h-3l-2-2l-1-2v-1l-3,3h-1l-2-2v4l-3,3h-1v-2l1-2h-2v6c-3,0-2,3-2,6h-4l-1-1v1l-1,3c-3,0-1,2-1,3l-4,1h-1l2,2v2l-2,1h1l2,1v1l-1,1h-1v2l-1,1h-1v2h2v2l-2,1h-4v-4l1-1c3,0,3-2,4-3h1l-2-2l-1-4v-1l3-3h1l-1-1l-1-2v-1c3,0,3-1,4-4h1l2,2v-6h1l2,2c0-2-1-2-2-3v-2c2,0,2-1,3-2h1l1,3v-3l1-2h2l1,1v-2l1-1c4,0,4-1,5-4zm39,23l-1-1v-1h2l-1-1v-1h1l1,1l-1-1v-1l1-4l-1,1h-3l1,2v2l-1,1h-1v2l-1,2l3-1zm-4-9h-1v1h1zm-1-1h-2v1l-1,1h2v-1zm-16-7h-1v1h3v-1zm-3,0v1h1v-1zm-9-3v-2h-1v2z"/><path d="M103,21h1l2,2v2h-2v-2h-2v-1zm-13,1h1l1,1v1h-2zm34,0h1l1,2v1q-2,1,4,1v1l-1,1h-1c-3-1-2,1-2,5l-1,2c-3,0-2,2-2,4h-1v-2h-3v-2l1-1l-1,1h-1v2h-1v-3c2,0,2-4,1-3h-1v-1l1-1h1v-3c2,0,2-1,3-2h1l1,1zm1,9l-2-4v4zm14-8h1v6l1-2l1-1h1l2,6v1c2,0,1-2,1-4h1l3,3l1,4v4l1-3l1-2h1c0,3,3,2,4,2l1,1v1l-1,2l2-1h1v-2h1v3l-1,1h-1v2h1c0,2,2,1,4,1l1,1v1c-2,0-2,1-3,3h-1c0,3,1,3,3,4v1l-1,1c-2,0-1,3-1,5l-1,2h-1c-2-2-2,0-4,1h-1v-1l1-1h1v-2c3,0,3-2,2-2l-3-1v-1l2-1h1c2,1,2-1,1-1l-1-1v-2l1-1h1v-2l1-1h-3l-1-2v-1l-1,1h-1v-1l1-1h1l-1-1v-1c-2,0-2,1-3,2h-1v2l-1,1h-1v-2l1-3l2-1h-3v2h-1c0-2-1-2-2-3v2h-2v-4h1l1,1l-1-2v-1l1-2l-2,1h-4l-1-3q0-1-1,4h-2v-8l-1,5l-1,1h-3l-2-1l-1-2v-2l1-1h2v-2h3l1,1v-2zm-4,5v3h1l1,1v-4zm29,18h-1v1h1z"/><path d="M107,26h1v1l-1,1h-1v-1zm38,0h2v2h-2zm-16,3h1l1,6v3h-1l-1-2zm-29,3h1v1l-1,1h-2v-1zm-17,1h2v1l-1,1h-1zm51,2h4v2l-2,2h-1l-1-3zm11,0h1v2h-1zm-7,3h1l2,2c0,2,1,2,2,3v6h-1l-1-2v-1l1-3h-3l-1-4zm-5,3h2v3l1-3h2v1c-1,1,0,1,1,2v1h-1l-1-1l1,1v2h2l1,1c0,2,1,2,3,3l1,1v1l-2,1h-1v-1h1h-2v-1l1-1h-2c0-3-2-3-6-4l-1-1v4l-1,1h-1l1,1v2h-1l-1-2v-1c1-3-1-3-1-2l-1,1h-1l1,1v1h-1l-1-1v-3h-1c0-2-1-2-2-3v-1l1-1h1l1,2l1,3v1l1-1h1v-3h-2v-2h1l3,3v1l1-1h1l-2-2v-1h1l3,3v-2h-1l-1-2z"/><path d="M99,44h1v3h-1zm-3,2h2l1,3v2h-1l-1-1c0-2-2-1-3-1v-1zm16,0h1v2h-1zm22,2h1l1,1v1h-1l-1-1zm16,0h2v1l-1,2l-1,1h-1v-1zm-79,3h1v2h-1zm64,2h1v1l1-1h1v1l-1,1h-1l-1-1zm-81,6h2v1h-2zm97,0h2v1h-2zm-100,2h3v1l-1,1h-2zm3,2h4v1l-1,1h-1v3l-2,1h-1l-1-1v-1l1-3zm110,1h1l1,1v2h-1l-1-1zm-119,1h1v3h-1zm118,3h3c0,3,1,3,2,5v4h-1l-1-1l-1-2v-1c1-2-1-2-2-3zm-119,5h1v2h-1zm-1,3h1v5h-1zm124,4h1v3h-2v-2zm-125,2h1v4h-1z"/><path d="M167,85h2l1,1v1l-1,3c-1,1,0,1,1,2l1,7v12h-2l-1-1v-1l2-1h-4v-5c1-2,0-2-1-3c0-2-1-2-2-3v-1c3,0,3-7,4-11zm-126,3h1v4h-1zm-1,9h1v11h-1zm1,15h1v2h-1zm128,0h2v5h-1c0-2-1-2-2-3v-1zm-34,6h3v1h-3zm0,2h1v3h-1zm-7,2h2v2h-1l-1-1zm-72,62h2l1,1v6h-1c0-5-1-5-2-6v1h-1l1,2v1h-2v-3zm-4,6h1v2l-4,8l-1,2h-1v3h-1v-3z"/><path d="M153,194h1l2,2v1l-1,2l1-1h1l2,2l1,2c0,4,1,4,2,5v1h2l4,2l1,1v1h2l1,1v1h2l2,1v1h4l6,2l1,1c0,1,3,1,7,2l2,1l1,1v1h-2l-2-1v-1h-4v-1l-3,1h-2v-1h1c0-2-3-2-8-3l-2-1l-1-1v-1h-2l-1-1v-1h-2l-1-1v-1h-2l-4-2l-3-3l-1-2l-1-4v-1v4h-2l-2-1zm3,11h1v2h-1zm-111,1h1v2l-1,1l-6,3c-4,0-4,1-5,2l-3,1c-3,0-3,1-4,2c-3,0-3,1-11,5l-2,1h-2v-1l16-8c3,0,3-1,7-3l3-1c3,0,3-1,5-2h2z"/><path d="M158,208h1l2,1v1h-2l-1-1zm-1,4h2v3h-2zm-44,5h2v1h-2zm44,4h2v1h-2zm-147,2h1v1l-1,1l-2,1c-2,0-2,1-4,3l-2,1h-2v-1l1-1l2-1c2,0,2-1,3-2zm176,1h2v1h-2zm12,0h3l1,1v1h3l6,3v1h3l2,1l3,3v4h-3l-1-1v-2h2l-2-2v-1h-2v2h-3v-2h3l-3-1v-1l-1,2h-2c0-4-2-4-5-5v-1l-2,2h-2l-1-1v-2zm1,2h2v-1h-2zm-40,2h1v2h-1zm42,5h2l1,1v1h-2l-1-1zm-3,1h1l1,1v1h-1l-1-1zm9,1h1v2h-1z"/><path d="M201,238h1v1l-1,1h-1v-1zm-47,1h2v2h-2zm53,1h2v1h-2zm10,0h2v1h-2zm-1,3h3v1l-1,1h-2zm-5,6h2v2l-1,1h-1l-1-1v-1zm-57,2h2v2l-1,1h-1l-1-1v-1zm45,1h1l1,1v1h-2zm-50,2h1v2h-2v-1zm-89,1h1v2h-1zm83,1h1l1,1v1l-3,6h-1v4l-1,1h-1v3l-2,1h-1v3l-1,1h-1c-1-1-1,0-3,2l-2,1h-2v2h-2v2h-1l1,1v1h-1l-1-1v2l-1,1h-1v-1l1-3l4-4h1v-2l1-1h1v-4l2-1h1v-2l3-3h1v-3l1-1l3-1h1l-1-1v-1l1-1c2,0,1-1,1-2z"/><path d="M196,258h1v2h-1zm-6,1h2v3h-1l-1-1zm-37,1h5l3,1v2h-1l-8-1v-1zm-84,1h1l1,1v2h-1l-1-2zm93,2h2v2h-1l-1-1zm-88,1h2v2h-1l-1-1zm-3,1h1l1,1v1h-2zm14,1h1c0,2,1,2,2,3v2h2l1,1l1,2v1h-2c0-2-1-2-3-4q0-1-1,2h-2v-2zm64,1h1v4l-1,2h-1v-4zm61,0h2l1,1v1h-2l-1-1zm-42,3h2l1,1v1h-1l-2-1zm14,1h2v1h-2zm-9,6h1v2h-1zm-77,3h1v3h-1zm120,0h3v1h-3zm-87,4h1v2l-1,1h-2v-2zm5,1h1l1,1v1h-2zm50,0h2v1l-1,2h-1z"/><path d="M218,287h1v1h-1z"/></g><g style="fill:rgb(103,81,72);fill-rule:evenodd;stroke:rgb(103,81,72);stroke-width:0.1;" id="l8"><path d="M71,26h1v1l-2,2h-1v-1zm18,1h2v1h-2zm34,0h1v4h-1zm2,0h1v2h-1zm-30,1h2v2h-1l-1-1zm33,0h1v3h-1zm-53,1h3l1,1v2l-1,1h-1l-2-2zm10,0h4l1,1v2l-1,1h-1v2h-1l1,1v1l-1,1h-1v-3l1-2l1-1h1v-2h-4zm16,1h1v2h-1zm29,0h2v1h-2zm-47,1h2l1,1v1h-1l-2-1v3l1-1h1v1l-1,1h-1l-1-1v-2l-1,2l-1,1h-1l-1-1v-1h1l1,1v-3zm15,0h1v1l-1,1h-1v-1zm10,1h1v2h-2v-1zm23,0h1v6l-1,1h-2l-1-2v2h-2v-3l2-1h1l1,1q1,2,0-1v-1z"/><path d="M91,33h1v2h-1zm2,0h1v3h-1zm32,0h1v2l-1,1h-1v2h-1l-1-1v2h-1l-2-1l-1-1v3l-1,4h-1v-4l1-3l1-2l1-1h1v1l-1,2c3,0,3-2,4-3h1l1,1zm-28,1h2l2,1l1,1v1h-1l-2-1l-1-1v3h-3v-1l1-1h1zm13,0h3v1l-1,4l-1,1h-2v-2h1l1,1l-1-1zm33,0h4v1l-2,1h-1l-1-1zm-68,1h1v4h-1zm60,0h1v1l-1,3h-1v-3zm-44,1h1v2h-1zm46,1h2l2,2v1c-4,0-4,1-5,4h-1v-3c-2,0-1,1-1,2l-2,2h-1v-1l1-1h1h-2v-2l2-1h2l1,1v-3zm1,2h1v-1h-1z"/><path d="M103,38h2l1,1v2h-2v2h-1l-1-1v-2h1l1,1l-1-1zm-13,1h1v1l-1,1h-1v-1zm-35,1h3v1l-1,1h-3v-1zm29,0h3v2h-1l-1-1v2h-1zm15,0h1l1,1v1h-1l-1-1zm14,0h1v3h-1l-1-1v-1zm-37,1h1v2h-1zm17,0h1v1l-1,1h-1v-1zm2,0h3l2,2v1l-1,3h-1l-2-1l-1-2zm3,3v-2l-2,2zm9-3h3v3l-1,1h-3v-2zm34,0h1l1,1v1h-1l-1-1zm6,0h2v1h-2zm-24,1h1v2h-2v-1zm29,0h1v2h-1zm-24,1h1l1,1v1l-1,1h-1v-1h1l-1-1zm-49,1h1c0,3,3,3,3,1h1c0,2,1,1,2,1v3h-1c-2-1-2,0-6,1h-1l-1-1l1,4v1h-2l-3-1v2h-1l-1-4v5h-1c-2-1-2,0-4,1h-2v2c-2,0-2,1-5,4l-5,1h-1v-1c1-2-1-2-2-3v-3h2l1,2v1h2l-2-1v-1h3v3l-1,1c2,0,2-1,3-2h2v-2l2-2l2-1c3,0,2-1,2-3h1c0,2,1,1,2,1v-5h1l1,1c0,2,2,2,4,3l-1-4v-2h2c0,2,1,2,2,3l-1-2v-2z"/><path d="M111,44h2v2l-1,6h-1l-1-1v-4zm-41,1h1v2h-1zm20,0h1l1,1v2h-1l-1-1zm25,0h1l1,5v1h4v-2h1c3,1,3-1,4-3h1v2c-1,3,0,3,1,4v1c-2,0-2,1-3,2h-1v-2h-10v-7zm7,0h1v3h-1zm29,0h1l1,1v2h-3v-1zm-98,1h1l1,1v1h-2zm41,0h1v2h-1zm8,0h1v2h-1zm29,0h1l2,2v1l1-1l2-1h1c0,2,1,1,2,1v1l-1,3l1-1c2,0,2-2,3-4h3v1l-2,1h-1l2,2v1c-3,0-2,0,1,1c2,1,2,0,4-2h2v1l-2,2q-2,0,3,1v2h-1l-2-1v2h2v1h-2l-1-1l-1-2v-1h-5l-1-2v-1l-1,1l-4,1h-1l-1-1v-1h-2c0-3-1-3-2-5zm5,3h-1v1h1z"/><path d="M106,47h1v2h-1zm-58,1h1l1,1v1h2l1,1l1,3v1h-3l-2-1l-1-1v-1h1l2,1v1h1v-2h-2c0-2-1-2-2-3zm113,1h1v1l-1,1h-1l1,2v1h-1l-1-1v-2zm-33,1h3v4h-2l-1-3zm28,6h1l1,1v1h-1l-1-1zm4,2h1v2c-3,0-3,2-4,3h-3l-1-1v-3h1l1,1l1,2v-3zm-111,3h1l1,1v1h-2zm3,5h1v1l-1,1h3v8l-1,1h-1v3l-1,2h4v3l-1,1c-2,1-1,1,1,3l1,2v3l-1,4h-2v2l-1,1h-2v-2l-1,2h-1v-3l1-8h1l-2-1v3h-2v-2l1-3l1-2h1v-3h-2v-1c2,0,2-1,3-2h1l-2-1v-2l2-2h1l-1-1l-1-4v-2zm-1,18h2v-1h-2z"/><path d="M48,102h4v3l-2,8h-1v5l-1,5l-1,3h-1v-10l1-7l1-2h1l-1-2zm120,6h2v1h-2zm-90,2h1l3,1l1,1v1h-1l-3-1l-1-1zm-37,6h1v3h-1zm37,1h4v1h-4zm53,0h3v1l-3,1h-1v-1zm-48,1h1v1l-1,1h-1v-1zm-15,1h1v1l-1,2h-1v-2zm4,0h1v1l-1,1h-1v-1zm2,0h1l1,1v2h-1l-1-2zm4,0h1l1,1v1h-1l-1-1zm55,0h2v1h-2zm3,0h3l1,1v1h-1l-3-1zm5,2h1v2h-1zm-98,1h1v2h-1zm27,0h2v1h-2zm11,0h1v1l-1,1h-4v-1z"/><path d="M132,122h1v2h-3v-1zm-88,4h1v2h-1zm3,1h1v8h-2l-1-3v-2h1q0,2,1-3zm1,10h1v9h-1zm49,17h2l1,1v1h-1l-2-1zm-13,21h1v2h-2v-1zm6,2h4v1h-4zm-32,14h1v7h-1zm3,0h2v4h-2zm2,5h3l1,1c0,3,1,3,3,7c0,3,1,3,2,4l2,4l1,3v3h2v3h-2v-3c-2,0-1,3-1,8h-1c0-3-1-3-2-5v-5h-1c0-2-1-2-2-3l-1-2l-1-3l-1-4c0-4-1-4-2-6z"/><path d="M58,205h1l1,4v14h-1l-1-3zm25,5h3v1h-3zm-26,2h1v2h-1zm31,0h1l1,1v1h3l1,1v1l1-1h1l5,1l1,1v1l3-1h8v1l-1,1l-7,1h-3l-3-1v-1l1-1l-2,1h-2l-3-1l-4-2l-1-1zm63,3h1v3h-1zm-91,12h1v2h-1zm1,4h1l1,2v2h-1l-1-1zm2,5h1c0,2,1,2,2,3l1,2v2h2l1,1c0,3,2,3,4,5v3h4l1,1l2,4c0,2,1,2,2,3l2,4v2h-1l-1-1c0-2-1-2-2-3c0-2-2-1-3-1l-2-2v-1h-2l-1-1v-1c1-2-1-2-2-3c0-3-1-3-2-4c0-2-1-2-3-4v-3h-2l-1-2z"/><path d="M83,241h2l1,1v1h-2l-1-1zm57,2h1v1l-1,2h-1v-2zm-45,6h2l6,1l2,1v1l-1,1l-2,1h-2l-2-1v-1l1-1h-4zm41,0h2v1c-2,4,1,4,1,3l2-2h3l2,1l-1-1v-1l1-1h2v3l-1,2l-1,1h-1v2h-4v-2h-3v2h-2v2h2v-2h3v3l-1,1h-2v2l-1,1h-1l-1-2v1l-1,3l-4,4h-1l-1-3v-1l1-3h2v-4h-2v-1h2l2,1v2h5l-6-3v-3l1-1h1v-2l1-1h1z"/></g><g style="fill:rgb(28,22,26);fill-rule:evenodd;stroke:rgb(28,22,26);stroke-width:0.1;" id="l9"><path d="M69,33h1l1,4q0,1,1-3h1l1,1v4l-1,3h-1l-1-1v1l-1,2h-1v3h-1l-1-1v-3c1-3,0-3-1-4v7l-1,1h-2l-1-2l-1-3v-3l1-2c6,0,6-1,7-4zm25,3h1v2l-1,1h-2v-2zm5,1h1v1l-3,3h-1v-1zm25,1h1v3h-1zm-44,1h1l3,1v1h-2v2h-2zm62,0h1v2h-1zm-71,5h2l1,2v1h-1l-2-2zm84,0h1v2l-1,1h-2v-1zm-102,1h3v1h-3zm5,1h2l1,1l1,2v1h-1l-3-1l-1-1v-1zm89,1h1v2h-1zm7,2h1l1,2v1l-1,1h-1l-2-2v-1z"/><path d="M61,52h3l1,1v1l-1,1l-2,1h-3l-2-1v-1h2l1,1v-2zm-11,11h1v2h-4v-1zm-3,4h3v1l-1,1h-1v3l-1,3h-1v2h2v3l-1,3h-1v6l-1,1h-1v2l-1,2h-1v-4l2-1h1l-1-4v-4l2-2h-1l-1-1v-1l1-4h1v-5zm-3,30h3v1l-1,1h-1v3h-1v-3h-2v-1zm1,8h1v7l-2,2h-1l-1-2v-5c2,0,2-1,3-2zm-3,10h4v1l-1,1h-1l2,1v6h-1l-1-1c0-3-1-3-2-4zm38,4h1v3l-1,1h-1v-2z"/><path d="M131,120h1l1,1v1l-1,1h-1zm-74,73h1v16c-1,12,0,12,1,14c0,5,1,5,4,17v3h1c0,2,1,2,2,3v2h-2l-2-2l-5-10l-1-4c0-4-1-4-2-7l-1-4l-1-6v-10l2-6zm96,19h1v6l-1,3h-1l1,3v1l-1,3c-1,0-1,6-2,13l-2,4h-1c0-2-2-2-2-1l-1,2h-1v-5l2-6l1-1h1v-3l2-6h1v-4z"/><path d="M60,258h5l3,3l1,2v2h-2l-1-1l1,2v2l-1,1h-1v4h-1l-1-2c0-2-4-2-4-1l-3,3h-5l-2-1l-2-2v-1l2-1c2,0,2-1,4-3h1v-2l2-2h1v-2zm92,5h7l2,1l1,1l1,2v4l-2,4l-1,1l-2,1h-1l-3-1l-1-1c0-2-1-2-3-3v-1z"/></g><g style="fill:rgb(82,64,61);fill-rule:evenodd;stroke:rgb(82,64,61);stroke-width:0.1;" id="l10"><path d="M96,22h1v2h-1zm-24,3h1v5h-1l-1-2v-1zm9,2h1l1,1v2h-1l-1-2zm-18,2h1v2h-1zm4,0h1v1l-2,2h-1v-1zm30,0h1l3,1v2l-1,1c-2,0-2,1-4,3h-1l-1-1v-1h1c1,1,1,0,3-2h1l-2-1zm29,0h1v2h-1zm-58,2h2v1l-1,1h-1zm7,0h1v2h-1zm17,0h2v2l-1,1h-1v-1h1l-1-1zm28,0h1v3h-1zm8,0h1v2h-1zm10,0h1v4h2v1h-2l-3-1v-1l-1,1h-1l-1-2v-1h1l4,2l-1-1v-1zm-55,1h2l2,1v1h-2l-2-1zm43,0h1v2h-1zm-45,1h1v2l-1,1h-1v-1zm-19,1h1v1l-1,1h-1v-1zm26,1h1l1,1v1h-1l-1-1z"/><path d="M125,35h1v1l-1,1h-1v-1zm-17,1h2l1,2v1h-1l-2-1zm39,0h1v1l-1,3h-1l-1-2v-1zm-29,1h1l2,1v1l2-1h1v1l-2,2h-1c0-2-2-2-2-1l-1,1h6l1,1v1h-3l3,3v4h-3l-1-1v2h-4l-1-1v-6l1-4zm5,11v-3h-1v3zm-5-1v-1l1-1h-1l-1-1v3zm10-10h1v3h2v1c-2,0-1,2-1,3h-1c-2-1-2,1-1,1l1,1v2l-1,1l1-1h2v2h-3l-1-1c0-3-1-3-2-4v-1l1-2l2-1h1l-1-1zm4,0h1v2h-2v-1zm-44,2h1v1l-1,1h-1v-1zm38,0h1v2h-1zm8,0h2v2h-1l-1-1zm-44,1h1l1,4v2h-1l-1-2z"/><path d="M108,40h2v1h-2zm29,0h2v2l-1,1h-1v-1h1l-1-1zm7,0h1l1,1v6h-3v-4zm8,0h1v2l-1,1h-1v-1zm-53,1h1v2h-1zm58,0h1l1,1v1h-1l-1-1zm-103,1h2v1h-2zm48,0h1v2h-1zm30,0h1l1,1v2h-1l-1-2zm16,0h1v4h-1l-1-1v-1zm7,0h1v1l-1,1h-1v-1zm-79,1h4v1l-1,1h-1l1,2v2h-1l-1-1l-1-4zm6,0h1l1,1v1l-1,2h-3v-2h1l1,1zm-8,1h1l1,1v1l-1,1h-1zm11,0h1v2l-1,1h-1v-1zm55,0h1l1,3v3h-1l-2-4v-1zm-69,2h1l1,1c0,3,1,1,3,1v4h-2l-2-1l-1-2v-2v4l-1,2l-2,2l-3,1c-2,0-2,1-3,2h-1v2c-2,0-2,1-3,2h-2v-1l1-4l1-1c4,0,4-1,6-2h1v-2h-2v-4h1c0,3,1,3,2,4v-3h2l1,1v-2zm-4,6v2h1v-2z"/><path d="M49,47h4v1h-4zm109,0h3v2h-2l-1-1zm-20,1h1l1,1v3h-1l-1-3zm6,0h3l1,1v2l1-3h1v3l-1,2l-1,1h4l-1-1v-1h2l1,3v-2l1-1h3v1l-3,3h1l1,1v1l1-1h2v2h-4v3h-1l-1-2v-1h-2l-2-1v-2h2v2c2,0,1-1,1-3h-5l-2-1l-1-1c0-2-1-2-2-3v-1zm8,0h2v1h-2v2h-1v-2zm-18,2h4v1l-1,1h-2l-1-1zm-80,1h2v1h-2zm-1,2h1l1,1v1l-1,1h-1v-1h1l-1-1zm0,4h1v2h-1zm-3,2h1l1,1v1l-1,1h-1v-1h1l-1-1zm3,3h1v1l-1,3l-1,1h-1v-1l1-3z"/><path d="M50,68h1l1,1l1,4v1l-2,2h-1v2h2v1l-2,2h-1v-5l1-1h-2v-2l1-1h1zm-2,14h2v3l-1,2h-1zm3,4h1v2h-1zm-4,2h1v2h-1zm2,1h2v1l-1,8l-1,4h-1l1,3v2l-1,2h-1v14h-1l-1-1v-2l1-2h-2v-1l1-1h1l-1-1v-2l1-6h1l-1-2v-3c2,0,1-3,1-5l2-4h-1v1l-2,2h-1v-1l1-3h3zm26,29h8v1l-1,3l-1,1h-1v-1c1-3,0-2-3-2l2,2v1h-3l-1-3z"/><path d="M128,118h2v1h-2zm3,0h4l1,1v1h-1l-2-1v2h-1l-1-1zm-89,1h1l1,1v2h-1l-1-2zm31,0h1v1l-2,2h-2v-1c2,0,2-1,3-2zm57,2h1v2h-1zm10,0h1v2h-1zm-96,2h1l1,1l1,2v6h-1l-1-2l-1-4zm71,31h2v1h-2zm12,22h2v1h-2zm-28,2h5v1h-5zm12,0h3v1h-3zm-53,20h1v7h-1zm-1,11h1v3h-1zm95,4h1v2h-1zm-95,1h1v5h-1zm41,3h2v1h-2zm4,0h3v1h-3zm-44,3h1l1,3v5h-1l-1-5zm91,3h1v2l-1,3h-1v-3z"/><path d="M60,229h1v3h-1zm87,1h1v1l-1,3l-1,1h-1v3l-1,3h-1v5l1-2l1-1h2v3h3v3l-1,1h-1l-2-1v3l-2,1h-1v-1l1-1c-3,0-3,1-5,3h-3v-2l1-2h1v-3l1-1c1,0,1-2,2-5l5-10zm-86,4h1l1,1l1,5v2h2c0,3,1,3,3,5c0,2,1,2,2,3c0,3,1,3,3,4v2h-2l-2-2v-2h-2v-3h-2c0-3-1-3-2-4l-1-2l-1-3l-1-4zm84,21h1v3l-1,2l-1,1h-1v-1l1-2h1zm-72,2h1l2,1l2,2v1l1-1h2c0,2,1,2,2,3c0,2,1,2,2,3v2h-3c0-2-1-2-4-5v-2h-2l-3-3z"/><path d="M97,286h1v2h-1z"/></g><g style="fill:rgb(159,123,125);fill-rule:evenodd;stroke:rgb(159,123,125);stroke-width:0.1;" id="l11"><path d="M93,23h2l1,1v1h-1l-2-1zm7,1h1v1l-1,2h-1l-1-1v-1zm9,1h2c0,2,3,1,4,1v1l-1,1h-3l-2-2zm9,0h1v1l-1,2h-1v3h-1v-4zm19,0h1v1l-1,1h-1v-1zm-59,2h1l1,1v2h-1l-1-2zm26,0h2v1h-2zm5,1h1l1,1v2h-1l-1-2zm20,0h2v2h-1l-1-1zm6,0h1v2h-1zm-21,4h2v1h-2v2h-1v-2zm-26,18h1l1,1v1h-2zm2,3h1v2h-2v-1zm2,1h1l1,1v1h-1l-1-1zm-6,3h1v1l-1,1h-1v-1zm47,1h3v1h-3zm11,0h2v1h-2zm-19,1h2v1h-2zm35,3h1l1,1v1h-1l-1-1zm-3,1h1l1,1v1l-2,1h-1v-2zm5,2h2v2l-2,2h-1l-1-1v-1h3l-1-1z"/><path d="M163,71h2v1h-2zm-1,3h2l2,1v1l-2,2h-1l-1-3zm4,3h1v2h-1zm-8,1h3l1,1v3h2v1h-2l-1-1v-1l-1,1h-1l-1-3zm6,1h1l2,1v1h-3zm-6,4h3l1,1v1l-1,1h2v3l1-2h1v2l-1,1h-2c0-2-1-2-2-3c0-2-1-2-2-3zm8,4h1v2h-1zm-7,2h1l1,1v2h-1l-1-2zm0,4h1l2,2v1l1-2h2v2l-2,1h-3v-1c1-1,0-1-1-2zm1,5h4l1,1v1l-2,2h1l1,1v2c-1,2,0,2,1,3v1h-1l-1-1v-1h-2v-1l1-1h1c0-2-1-1-2-1v-1q1,0-3-1v-1h2c0-2-1-1-2-1v-1zm0,7h1v2h-1z"/><path d="M85,109h2v1h-2zm49,0h2v3l-2,1h-2v-1h2zm37,0h1v2l-1,1h-3v-2h1l2,1zm-47,1h2v1h-2v2h-2v-1zm-87,5h2v1h-2zm81,0h2v1c-2,0-2,1-3,2h-1v-2zm53,1h1v2h-1zm-136,2h1v2h-1zm48,1h2l1,1v1h-4v-1zm40,0h2v1l-1,1h-1zm-5,2h1v1l-1,1h-1v-1zm3,0h1v1l-1,1h-1v-1zm55,0h1l1,1v1h-2zm-37,1h1l1,1v1h-1l-1-1zm-66,3h1l2,1v1h-3zm14,7h1v1l-1,1h-1v-1zm89,0h1v3h-1zm0,5h1v4l-1,6l-1,1h-1v-3l1-7zm-140,1h1v3h-1zm132,1h1l1,3v3h-1l-2-4v-1z"/><path d="M99,142h1v4l-1,6h-3l-1-1v-4h1v4c2,0,2-5,3-9zm-62,2h1v4h-1zm85,3h1l3,3v4h-1v-4h-3zm47,0h1v2h-1zm-131,2h1v3h-1zm80,4h1l1,1v2h-1l-1-2zm8,2h3v2h-3zm-21,1h1l1,1v1h-3v-1zm-63,1h1l1,1v2h2v2h-1l-1-1v-1h-2zm41,0h1v3h-1zm14,1h3l2,1v1h-6v-1zm6,2h2v1h-2zm26,0h2l1,1v1h-1l-2-1zm-36,1h2l1,1v2l-1,2h-1l-1-2zm72,0h1l1,1v1h-2zm-81,3h2l2,2v3h-1l-3-1zm1,3h2v-1h-2z"/><path d="M81,169h2v1h-2zm14,2h1l1,1v1l-2,1h3l2,2v1h-1l-4-2v-1h-9l-2-1v-1h6l5,1zm29,2h2v4l-1,1h-1l-1-2v-1h1l1,1l-1-2zm4,0h1v2h-1zm-12,3h5v1h-5zm-31,1h3l1,1v1h-6v-1zm37,1h1v1l-1,1h-3v-1zm-25,1h2v1l-2,1h-1v-1zm-3,2h1v6h3v4h-2l-2-2v-1h-2v-3h-3v-3h2v2h2v-2zm53,14h3v2h-1l-1-1v1l-1,3h-2v-2l1-2z"/><path d="M152,202h1v5h-1zm-9,1h1v2h-1zm-1,5h1v2c-2,0-1,6-1,8h-2v-2h-2v2h-1v-3l1-4l1-1c2,0,2-1,3-2zm-27,6h4v1h-4zm29,2h2v1h-2zm-10,3h3l2,1v2l-2,1h-1v-3l-1,1h-1zm8,0h4v1l-1,2h-2l-1-1zm-12,6h1v3h3v-3h1v2h2v2l-3,1h-1l-2-1c0,3,2,2,3,2v1l-1,3l-2,2h-1v-1l1-1h1c0-2-1-1-2-1v-1c1-1,0-1-1-4v-2zm15,0h1v3h-1zm1,4h1v1l-1,1h-1v-1zm-3,3h1v2l-2,1h-1v-1zm-4,1h1l1,3v1h-1l-1-1z"/><path d="M128,235h1v3l-1,1h-2v-1h2zm-6,2h1l1,1v1h-1l-1-1zm16,0h1l2,1v1h-2l-1-1zm-3,2h2v2l-1,5h-1zm3,1h1v2h-1zm-11,12h1v3h-2v-2zm-5,4h1v3h-1zm0,5h1v2h-1zm-2,2h1l1,1v1l-1,1h-1v-1h1l-1-1zm-1,4h2v1h-2zm-6,3h2v1h-2zm4,0h1v2l-1,1h-1v-2zm-26,2h2v1h-2zm22,2h2v1h-2zm5,0h1l1,3v1h-1l-1-1zm-19,1h1v2h-1zm6,0h1l1,5v1l-1,1h-1l1,4v2h-1l-1-1v-1h-2v-1h-2v2h-2v-2l2-1l-2,1h-1v-3l1-2h-1c0-2-1-2-2-3v-1h3c0,4,1,4,2,5v-2h1l1,2v-2l1-2zm-3,9v-2h-1l-1-1v3z"/><path d="M126,275h2v2l-1,2l-1,1h-1l-1-1v-1l1-1h1zm-5,11h1v1l-1,1h-2v-1zm-5,1h1v1h-1z"/></g><g style="fill:rgb(62,97,156);fill-rule:evenodd;stroke:rgb(62,97,156);stroke-width:0.1;" id="l12"><path d="M157,207h1c0,2,1,1,2,1v1l-1,1h2v1l-2,1h3v3c-2,0-1,2-1,3h-2l-1-1v-2l2-1h-1l-1-2v-1c1-1,0-1-1-2zm9,10h2v1h-2zm-4,1h1l1,1v1h-3v-1zm14,0h2v1l-1,1h-1zm3,0h1l1,1v3h-1l-1-1zm-13,2h2v1l-1,2h-1zm17,1h1l2,1v1h3v1h7l1,1c0,2,1,2,2,3v1l-1,1h-1v2c-2,0-1,1-1,2h-2l-1-1v-1h-2l-1-4v-1h2l1,2c0-4-3-3-11-3v-1c2,0,1-2,1-4zm10,10h1l1,1v-2h-2zm-5-6v-1h-2v1zm7,3h1v-3h-2l1,1zm-34-4h1v2h-1zm-2,3h2v3l-1,1h-1l2,1v1c-1,1,0,1,1,2v2l-1,1h-2l-1-1v-9zm0,3h1v-2h-1z"/><path d="M187,227h1v2h-1zm15,1h2l2,1l1,1v2h3v2h4l1,1v2h-1l-2-1l-1-1l3,3v1l-2,2h-1c0-3-2-2-3-2l-2-2l-1-4v5l-1,1l-2,1h-1l-1-1v-1h1l1,1v-2l1-2l1-1h-1l-2-1l1,1v1l-1,2h-2l-2-2v-1h1l1,1v1h1l-2-2v-3c2,0,2-1,4-3zm0,3h1v1h1v-3zm6,6v-2h-1v2zm-21-5h2v1l-1,1h-1zm-19,3h1v4h-1zm28,2h1v2h2v2h-1l-2-2zm-6,1h1l1,2v1l-3,1h-1l-1-1v-1l1-1zm-28,1h2v3h-4v-1zm43,0h2v2h-1l-1-1zm-36,2h1v2h-1z"/><path d="M202,241h2v1h-2zm11,1h1v2h-1zm3,0h2v1h-2zm-51,1h2l1,1v1h-2l-1-1zm34,0h2v2h-2zm-41,1h1l1,1v2l-1,3h-1l-1-1v-1h-2v-1l1-1h3l-1-1zm4,0h2c0,2,1,2,2,3v8l-1,1h2l1,1v1l-1,3h-2v-5h-2v-2l1-2c1-1,0-1-1-2v2h-1l-1-1v-6zm2,5v-1l1-1h-3v2zm43-5h2v1h-2zm-38,2h1v2h-1zm40,0h1l2,2v1l-1,1h-1v-1l1-1h-2zm-10,1h5v1l-1,2l1-1h1v8l-3,1h-1l-1-1v-1l1-1h1l1,1v-1l1-2l-1,1h-2l-1-1v-1l-1,1h-1v-2h2c2,2,1,1,1-3h-2z"/><path d="M197,248h1v2h-1zm-41,3h1v2h-1zm2,0h2l1,1v1l-1,2l-2,1h-1v-1l1-1h1l-1-2zm30,0h2v1h-2zm22,0h3l2,1v1h-4l-1-1zm6,2h1v2h-1zm-4,2h3v1h-3zm6,1h1v2h-1zm-58,1h1v2h-1zm2,1h1v2h-1zm51,1h4v1h-4zm-6,5h1l1,1v1h-3v-1zm-39,1h1v2h-1zm42,1h4l1,1v1l-2,2h-2l-1-1v-1h1l2,1l-1-1v-1l-2,1h-1v-1zm-42,3h2l1,1v1l-1,1h-1v-1l1-1h-2zm29,5h1v2h-1zm-3,1h2v1h-2zm22,4h1v1l-1,1h-1v-1zm-31,2h2v1h-2zm-25,2h1v2h-1zm24,0h1l1,1v1h-2zm13,0h1l1,1v2h-2z"/></g><g style="fill:rgb(121,122,132);fill-rule:evenodd;stroke:rgb(121,122,132);stroke-width:0.1;" id="l13"><path d="M105,18h1l1,1v2l-1,2h-1l-1-1v-1l-1,1h-1v-2c2,0,2-1,3-2zm0,3h1v-2h-1zm-26-2h1v2h3v1h-4zm16,0h1v2h-1zm4,0h2v1l-1,1l-2,1h-1v-1zm15,1h1l1,4v1h-1l-1-1zm-39,1h1v1l-1,1h-2v-1zm9,0h2v1l-1,1l2-1l3-1h1l2,2v1h-1l-1-1v-1v3h-2c0-2-2-1-4-1l-1-1zm-14,1h1v2l-1,1h-3v-1h3zm30,0h1v2h3v1l-1,2h-3v-2l1-1l-1,1h-2v-2zm39,0h1v1l-1,1h-1v-1zm-18,1h2v1h-2zm7,0h1l1,1l1,2v1h-1l-2-1zm-49,1h1v1l-1,2h-1v-2z"/><path d="M95,25h2v2h-1l-1-1zm16,0h2v2h-2zm-49,1h2v1h-2zm81,0h1c0,3,1,2,3,2v1l-1,1h-2l-1-1zm-84,2h1v1l-2,2h-2v-1c2,0,2-1,3-2zm49,0h1v1l-1,2h-1v-2zm41,1h1l1,3v2h-1c0-2-1-2-2-3v-1zm-14,1h1l1,1v1h-1l-1-1zm-20,1h2v1h-2zm31,0h1v2h-2v-1zm-90,2h1l1,1v2h-1l-1-1zm-6,2h1l1,2v2h-1l-1-2zm108,2h1l1,1v1l-1,1h-1v-1h1l-1-1zm-111,4h3v1c-2,0-1,1-1,4h-1l-1-1zm114,0h1l1,1v4h-2v-4v2h-1v-2zm3,3h1l1,1v1h-1l-1-1zm-117,3h1v1l-1,1h-1l1,1v1h-1l-1-1v-1z"/><path d="M164,47h1v3c-2,0-1,3-1,4h-1l-1-1v-3l1-2zm-117,7h1l1,1v1l-1,1h-1v-1h1l-1-1zm118,0h1v1l-1,1h-1v-1zm-3,2h1l1,3v6h-1l-1-6zm-120,4h1l1,1v2l-1,1h2v1h-3v-4v1h-1v-1zm2,6h1v4h-1zm118,2h1l1,2v1h-1l-1-1zm4,8h1l1,1v3h-2zm-2,5h2v2h-1l-1-1zm-3,1h1v2h-1zm7,0h1v2h-1zm-2,2h1v3h-1zm-3,3h1l2,4v1h-1l-2-1zm5,3h1l1,1v1h-1l-1-1zm-5,3h1v1l-1,1h-1v-1zm7,3h1v3h-1zm1,5h1v4l-1,2h-1v-2z"/><path d="M40,108h1v4h-1zm131,3h1v4h-1zm-118,77h1v1l-1,1h-1v-1zm100,4h1c0,2,1,2,2,3v1h-1l-2-2zm3,5h1l1,1v1h-1l-1-1zm4,8h1l1,1v1h-1l-1-1zm16,10h2v1h-2zm21,8h2v1h-2zm5,2h2v1h-2zm-125,39h1v2h-1zm49,15h1v1l-2,2h-1v-1z"/></g><g style="fill:rgb(156,164,189);fill-rule:evenodd;stroke:rgb(156,164,189);stroke-width:0.1;" id="l14"><path d="M157,195h1l1,2v2h-1l-1-1zm2,5h1l1,1v3h-1l-1-3zm-115,6h1v2h-2v-1zm118,0h1l4,2v1h-2l-2-1l-1-1zm-126,3h2v1l-1,1h-1zm132,0h2v2h-1l-1-1zm4,3h1l1,1v1h-2zm25,10h2v1h-2zm5,2h2v1h-2zm-126,40h1v2h-1z"/></g></svg>